<?xml version="1.0" standalone="no"?>
<!DOCTYPE svg PUBLIC "-//W3C//DTD SVG 20010904//EN"
 "http://www.w3.org/TR/2001/REC-SVG-20010904/DTD/svg10.dtd">
<svg version="1.0" xmlns="http://www.w3.org/2000/svg"
 width="512.000000pt" height="512.000000pt" viewBox="0 0 512.000000 512.000000"
 preserveAspectRatio="xMidYMid meet">

<g transform="translate(0.000000,512.000000) scale(0.100000,-0.100000)"
fill="#000000" stroke="none">
<path d="M1569 5066 c-3 -4 -44 -13 -90 -20 -619 -102 -1129 -520 -1360 -1115
-32 -83 -68 -217 -95 -356 -34 -176 -18 -482 37 -700 138 -549 554 -1014 1082
-1211 l88 -32 122 44 c144 52 338 98 492 114 60 7 115 14 121 17 8 3 8 24 -1
76 -16 96 -25 177 -19 177 2 0 36 -16 74 -35 117 -59 104 -66 346 176 l212
212 172 -69 c94 -37 175 -75 180 -84 4 -8 42 -136 84 -285 42 -148 81 -280 86
-293 21 -48 53 -52 417 -52 l338 0 94 -94 94 -95 -102 -201 -103 -201 50 -47
c72 -68 89 -145 48 -224 -13 -25 -12 -30 21 -72 20 -26 41 -46 48 -46 7 0 42
11 77 24 319 120 584 331 769 610 l58 88 -31 62 c-57 115 -26 106 -377 106
l-306 0 -103 103 c-56 56 -102 109 -102 117 0 8 33 128 73 265 l72 250 136 70
137 70 251 -168 c185 -123 259 -167 281 -167 16 0 63 17 105 37 87 43 84 34
64 211 -33 306 -150 590 -342 830 l-50 62 -78 0 c-120 0 -113 11 -215 -346
l-86 -300 -134 -67 -134 -67 -225 150 -225 150 0 174 0 174 247 173 c136 96
256 186 267 202 20 27 20 28 1 102 l-18 74 -76 25 c-159 53 -356 86 -511 86
l-58 0 -31 96 c-149 460 -463 824 -901 1044 -140 71 -300 122 -485 157 -82 15
-475 31 -486 19z m1748 -1332 c-3 -3 -12 -4 -19 -1 -8 3 -5 6 6 6 11 1 17 -2
13 -5z m-120 -20 c-3 -3 -12 -4 -19 -1 -8 3 -5 6 6 6 11 1 17 -2 13 -5z m-247
-82 c0 -4 -9 -35 -20 -68 -34 -100 -51 -82 300 -327 l205 -144 2 -179 3 -179
-225 -149 -224 -149 -182 74 -181 74 -84 210 c-53 132 -92 217 -106 229 -13
10 -58 34 -100 54 -43 19 -78 38 -78 41 0 11 154 184 191 214 176 144 252 195
388 261 97 47 111 52 111 38z m-983 -1204 c-3 -8 -6 -5 -6 6 -1 11 2 17 5 13
3 -3 4 -12 1 -19z m-20 -155 c-3 -10 -5 -4 -5 12 0 17 2 24 5 18 2 -7 2 -21 0
-30z"/>
<path d="M1277 1179 c-25 -15 -47 -70 -47 -119 l0 -40 -45 0 c-109 0 -165 -88
-99 -154 23 -22 35 -26 85 -26 l59 0 0 -45 c0 -64 21 -109 59 -124 68 -29 114
9 121 102 l5 62 88 3 87 3 0 -65 c0 -59 2 -66 31 -90 35 -30 58 -32 98 -11 33
17 51 59 51 121 l0 44 85 0 85 0 0 -61 c0 -54 3 -64 29 -90 40 -39 82 -39 122
0 26 26 29 36 29 90 l0 61 85 0 85 0 0 -44 c0 -62 18 -104 51 -121 40 -21 63
-19 98 11 29 24 31 31 31 90 l0 65 88 -3 87 -3 3 -62 c3 -55 6 -65 33 -88 35
-29 58 -31 98 -10 33 17 51 59 51 121 l0 44 60 0 c51 0 65 4 85 25 33 32 33
84 2 121 -20 23 -34 28 -84 32 l-60 4 -6 61 c-7 74 -36 107 -93 107 -57 0 -84
-35 -84 -110 l0 -60 -90 0 -90 0 0 60 c0 75 -27 110 -84 110 -58 0 -86 -33
-93 -108 l-6 -62 -83 0 -84 0 0 51 c0 81 -29 118 -92 119 -55 0 -88 -44 -88
-116 l0 -54 -84 0 -84 0 -4 62 c-4 51 -9 65 -32 85 -38 32 -89 31 -121 -3 -21
-22 -25 -37 -25 -85 l0 -59 -90 0 -90 0 0 60 c0 51 -4 65 -25 85 -26 27 -75
33 -108 14z"/>
</g>
</svg>
